<?xml version="1.0" encoding="utf-8"?><svg xmlns="http://www.w3.org/2000/svg" xmlns:xlink="http://www.w3.org/1999/xlink" width="1366" height="661" preserveAspectRatio="xMidYMid" viewBox="0 0 1366 661" style="z-index:1;margin-right:-2px;display:block;background-repeat-y:initial;background-repeat-x:initial;background-color:rgb(255, 178, 91);animation-play-state:paused" ><g transform="" style="animation-play-state:paused" ><g transform="matrix(1,0,0,1,949.1773681640625,-13.9700927734375) matrix(-0.6700636264001837,0.7423036687067059,-0.7423036687067059,-0.6700636264001837,120.61836475534449,46.38799788467389)" style="transform:matrix(-0.670064, 0.742304, -0.742304, -0.670064, 1069.8, 32.4179);animation-play-state:paused" ><path d="M87.422,66.495c-2.009-0.544-4.049-0.97-6.107-1.283c10.617-11.116,15.747-27.37,13.129-42.549 c-5.236,1.77-10.223,4.252-14.824,7.313c-4.13,2.747-7.948,5.961-11.374,9.55C67.425,24.863,61.344,10.451,50.991,0 c-4.015,5.451-7.281,11.444-9.753,17.744c-3.579,9.122-5.501,18.893-5.669,28.691c-4.79-7.979-11.256-14.955-18.858-20.322 c-4.514-3.187-9.431-5.806-14.616-7.72c-3.361,16.717,2.731,35.015,15.445,46.379c0.369,0.33,0.745,0.654,1.126,0.972 c-2.359,0.411-4.689,0.983-6.969,1.714C7.582,68.775,3.634,70.61,0,72.945c8.85,9.963,23.134,14.771,36.208,12.186 c3.524-0.697,7.002-1.919,9.887-4.057c0.073-0.054,0.145-0.111,0.218-0.167c-0.987,5.662-2.714,11.136-5.104,16.221l7.509,2.806 c1.698-5.797,2.631-11.748,2.814-17.669c0.107,0.076,0.215,0.152,0.324,0.225c3.142,2.114,6.863,3.232,10.607,3.796 C76.352,88.379,91.161,82.628,100,71.71C96.061,69.427,91.816,67.684,87.422,66.495z" fill="#f86161" transform="scale(0.9168503339447458)" style="transform:matrix(0.91685, 0, 0, 0.91685, 0, 0);animation-play-state:paused" ></path></g>
<g transform="matrix(1,0,0,1,1313.593017578125,276.4399719238281) matrix(-0.45509840836575616,0.8904411483657724,-0.8904411483657724,-0.45509840836575616,117.27697783657642,28.23286299999919)" style="transform:matrix(-0.455098, 0.890441, -0.890441, -0.455098, 1430.87, 304.673);animation-play-state:paused" ><path d="M87.422,66.495c-2.009-0.544-4.049-0.97-6.107-1.283c10.617-11.116,15.747-27.37,13.129-42.549 c-5.236,1.77-10.223,4.252-14.824,7.313c-4.13,2.747-7.948,5.961-11.374,9.55C67.425,24.863,61.344,10.451,50.991,0 c-4.015,5.451-7.281,11.444-9.753,17.744c-3.579,9.122-5.501,18.893-5.669,28.691c-4.79-7.979-11.256-14.955-18.858-20.322 c-4.514-3.187-9.431-5.806-14.616-7.72c-3.361,16.717,2.731,35.015,15.445,46.379c0.369,0.33,0.745,0.654,1.126,0.972 c-2.359,0.411-4.689,0.983-6.969,1.714C7.582,68.775,3.634,70.61,0,72.945c8.85,9.963,23.134,14.771,36.208,12.186 c3.524-0.697,7.002-1.919,9.887-4.057c0.073-0.054,0.145-0.111,0.218-0.167c-0.987,5.662-2.714,11.136-5.104,16.221l7.509,2.806 c1.698-5.797,2.631-11.748,2.814-17.669c0.107,0.076,0.215,0.152,0.324,0.225c3.142,2.114,6.863,3.232,10.607,3.796 C76.352,88.379,91.161,82.628,100,71.71C96.061,69.427,91.816,67.684,87.422,66.495z" fill="#ffc46c" transform="scale(0.5757336079366547)" style="transform:matrix(0.575734, 0, 0, 0.575734, 0, 0);animation-play-state:paused" ></path></g>
<g transform="matrix(1,0,0,1,1124.1375732421875,718.4822387695312) matrix(0.7778025226299633,0.6285087396293431,-0.6285087396293431,0.7778025226299633,42.535310849968994,-20.31556311296532)" style="transform:matrix(0.777803, 0.628509, -0.628509, 0.777803, 1166.67, 698.167);animation-play-state:paused" ><path d="M87.422,66.495c-2.009-0.544-4.049-0.97-6.107-1.283c10.617-11.116,15.747-27.37,13.129-42.549 c-5.236,1.77-10.223,4.252-14.824,7.313c-4.13,2.747-7.948,5.961-11.374,9.55C67.425,24.863,61.344,10.451,50.991,0 c-4.015,5.451-7.281,11.444-9.753,17.744c-3.579,9.122-5.501,18.893-5.669,28.691c-4.79-7.979-11.256-14.955-18.858-20.322 c-4.514-3.187-9.431-5.806-14.616-7.72c-3.361,16.717,2.731,35.015,15.445,46.379c0.369,0.33,0.745,0.654,1.126,0.972 c-2.359,0.411-4.689,0.983-6.969,1.714C7.582,68.775,3.634,70.61,0,72.945c8.85,9.963,23.134,14.771,36.208,12.186 c3.524-0.697,7.002-1.919,9.887-4.057c0.073-0.054,0.145-0.111,0.218-0.167c-0.987,5.662-2.714,11.136-5.104,16.221l7.509,2.806 c1.698-5.797,2.631-11.748,2.814-17.669c0.107,0.076,0.215,0.152,0.324,0.225c3.142,2.114,6.863,3.232,10.607,3.796 C76.352,88.379,91.161,82.628,100,71.71C96.061,69.427,91.816,67.684,87.422,66.495z" fill="#ff9f32" transform="scale(0.7700684676340279)" style="transform:matrix(0.770068, 0, 0, 0.770068, 0, 0);animation-play-state:paused" ></path></g>
<g transform="matrix(1,0,0,1,521.58154296875,516.4055786132812) matrix(-0.10343454001946435,-0.9946362631288695,0.9946362631288695,-0.10343454001946435,5.439913844529741,104.9035401574167)" style="transform:matrix(-0.103435, -0.994636, 0.994636, -0.103435, 527.021, 621.309);animation-play-state:paused" ><path d="M87.422,66.495c-2.009-0.544-4.049-0.97-6.107-1.283c10.617-11.116,15.747-27.37,13.129-42.549 c-5.236,1.77-10.223,4.252-14.824,7.313c-4.13,2.747-7.948,5.961-11.374,9.55C67.425,24.863,61.344,10.451,50.991,0 c-4.015,5.451-7.281,11.444-9.753,17.744c-3.579,9.122-5.501,18.893-5.669,28.691c-4.79-7.979-11.256-14.955-18.858-20.322 c-4.514-3.187-9.431-5.806-14.616-7.72c-3.361,16.717,2.731,35.015,15.445,46.379c0.369,0.33,0.745,0.654,1.126,0.972 c-2.359,0.411-4.689,0.983-6.969,1.714C7.582,68.775,3.634,70.61,0,72.945c8.85,9.963,23.134,14.771,36.208,12.186 c3.524-0.697,7.002-1.919,9.887-4.057c0.073-0.054,0.145-0.111,0.218-0.167c-0.987,5.662-2.714,11.136-5.104,16.221l7.509,2.806 c1.698-5.797,2.631-11.748,2.814-17.669c0.107,0.076,0.215,0.152,0.324,0.225c3.142,2.114,6.863,3.232,10.607,3.796 C76.352,88.379,91.161,82.628,100,71.71C96.061,69.427,91.816,67.684,87.422,66.495z" fill="#ff9f32" transform="scale(0.5222377251601794)" style="transform:matrix(0.522238, 0, 0, 0.522238, 0, 0);animation-play-state:paused" ></path></g>
<g transform="matrix(1,0,0,1,787.5476684570312,404.1370849609375) matrix(0.5913994182206517,0.806378774601784,-0.806378774601784,0.5913994182206517,60.74896781905662,-19.888909641121785)" style="transform:matrix(0.591399, 0.806379, -0.806379, 0.591399, 848.297, 384.248);animation-play-state:paused" ><path d="M87.422,66.495c-2.009-0.544-4.049-0.97-6.107-1.283c10.617-11.116,15.747-27.37,13.129-42.549 c-5.236,1.77-10.223,4.252-14.824,7.313c-4.13,2.747-7.948,5.961-11.374,9.55C67.425,24.863,61.344,10.451,50.991,0 c-4.015,5.451-7.281,11.444-9.753,17.744c-3.579,9.122-5.501,18.893-5.669,28.691c-4.79-7.979-11.256-14.955-18.858-20.322 c-4.514-3.187-9.431-5.806-14.616-7.72c-3.361,16.717,2.731,35.015,15.445,46.379c0.369,0.33,0.745,0.654,1.126,0.972 c-2.359,0.411-4.689,0.983-6.969,1.714C7.582,68.775,3.634,70.61,0,72.945c8.85,9.963,23.134,14.771,36.208,12.186 c3.524-0.697,7.002-1.919,9.887-4.057c0.073-0.054,0.145-0.111,0.218-0.167c-0.987,5.662-2.714,11.136-5.104,16.221l7.509,2.806 c1.698-5.797,2.631-11.748,2.814-17.669c0.107,0.076,0.215,0.152,0.324,0.225c3.142,2.114,6.863,3.232,10.607,3.796 C76.352,88.379,91.161,82.628,100,71.71C96.061,69.427,91.816,67.684,87.422,66.495z" fill="#f86161" transform="scale(1.072387465766233)" style="transform:matrix(1.07239, 0, 0, 1.07239, 0, 0);animation-play-state:paused" ></path></g>
<g transform="matrix(1,0,0,1,1849.999267578125,429.32952880859375) matrix(-0.6996819111740163,0.7144544934254916,-0.7144544934254916,-0.6996819111740163,120.70682022997539,49.26137088742623)" style="transform:matrix(-0.699682, 0.714454, -0.714454, -0.699682, 1970.71, 478.591);animation-play-state:paused" ><path d="M87.422,66.495c-2.009-0.544-4.049-0.97-6.107-1.283c10.617-11.116,15.747-27.37,13.129-42.549 c-5.236,1.77-10.223,4.252-14.824,7.313c-4.13,2.747-7.948,5.961-11.374,9.55C67.425,24.863,61.344,10.451,50.991,0 c-4.015,5.451-7.281,11.444-9.753,17.744c-3.579,9.122-5.501,18.893-5.669,28.691c-4.79-7.979-11.256-14.955-18.858-20.322 c-4.514-3.187-9.431-5.806-14.616-7.72c-3.361,16.717,2.731,35.015,15.445,46.379c0.369,0.33,0.745,0.654,1.126,0.972 c-2.359,0.411-4.689,0.983-6.969,1.714C7.582,68.775,3.634,70.61,0,72.945c8.85,9.963,23.134,14.771,36.208,12.186 c3.524-0.697,7.002-1.919,9.887-4.057c0.073-0.054,0.145-0.111,0.218-0.167c-0.987,5.662-2.714,11.136-5.104,16.221l7.509,2.806 c1.698-5.797,2.631-11.748,2.814-17.669c0.107,0.076,0.215,0.152,0.324,0.225c3.142,2.114,6.863,3.232,10.607,3.796 C76.352,88.379,91.161,82.628,100,71.71C96.061,69.427,91.816,67.684,87.422,66.495z" fill="#f86161" transform="scale(0.5981041191963791)" style="transform:matrix(0.598104, 0, 0, 0.598104, 0, 0);animation-play-state:paused" ></path></g>
<g transform="matrix(1,0,0,1,2078.17724609375,744.2081298828125) matrix(0.5137728576768361,-0.8579262501605703,0.8579262501605703,0.5137728576768361,-18.584955391870324,67.2076696241867)" style="transform:matrix(0.513773, -0.857926, 0.857926, 0.513773, 2059.59, 811.416);animation-play-state:paused" ><path d="M87.422,66.495c-2.009-0.544-4.049-0.97-6.107-1.283c10.617-11.116,15.747-27.37,13.129-42.549 c-5.236,1.77-10.223,4.252-14.824,7.313c-4.13,2.747-7.948,5.961-11.374,9.55C67.425,24.863,61.344,10.451,50.991,0 c-4.015,5.451-7.281,11.444-9.753,17.744c-3.579,9.122-5.501,18.893-5.669,28.691c-4.79-7.979-11.256-14.955-18.858-20.322 c-4.514-3.187-9.431-5.806-14.616-7.72c-3.361,16.717,2.731,35.015,15.445,46.379c0.369,0.33,0.745,0.654,1.126,0.972 c-2.359,0.411-4.689,0.983-6.969,1.714C7.582,68.775,3.634,70.61,0,72.945c8.85,9.963,23.134,14.771,36.208,12.186 c3.524-0.697,7.002-1.919,9.887-4.057c0.073-0.054,0.145-0.111,0.218-0.167c-0.987,5.662-2.714,11.136-5.104,16.221l7.509,2.806 c1.698-5.797,2.631-11.748,2.814-17.669c0.107,0.076,0.215,0.152,0.324,0.225c3.142,2.114,6.863,3.232,10.607,3.796 C76.352,88.379,91.161,82.628,100,71.71C96.061,69.427,91.816,67.684,87.422,66.495z" fill="#f86161" transform="scale(0.9044867075115948)" style="transform:matrix(0.904487, 0, 0, 0.904487, 0, 0);animation-play-state:paused" ></path></g>
<g transform="matrix(1,0,0,1,1031.17529296875,568.8034057617188) matrix(-0.9546118553477668,-0.2978526575834001,0.2978526575834001,-0.9546118553477668,82.83795988821834,112.62322564655835)" style="transform:matrix(-0.954612, -0.297853, 0.297853, -0.954612, 1114.01, 681.427);animation-play-state:paused" ><path d="M87.422,66.495c-2.009-0.544-4.049-0.97-6.107-1.283c10.617-11.116,15.747-27.37,13.129-42.549 c-5.236,1.77-10.223,4.252-14.824,7.313c-4.13,2.747-7.948,5.961-11.374,9.55C67.425,24.863,61.344,10.451,50.991,0 c-4.015,5.451-7.281,11.444-9.753,17.744c-3.579,9.122-5.501,18.893-5.669,28.691c-4.79-7.979-11.256-14.955-18.858-20.322 c-4.514-3.187-9.431-5.806-14.616-7.72c-3.361,16.717,2.731,35.015,15.445,46.379c0.369,0.33,0.745,0.654,1.126,0.972 c-2.359,0.411-4.689,0.983-6.969,1.714C7.582,68.775,3.634,70.61,0,72.945c8.85,9.963,23.134,14.771,36.208,12.186 c3.524-0.697,7.002-1.919,9.887-4.057c0.073-0.054,0.145-0.111,0.218-0.167c-0.987,5.662-2.714,11.136-5.104,16.221l7.509,2.806 c1.698-5.797,2.631-11.748,2.814-17.669c0.107,0.076,0.215,0.152,0.324,0.225c3.142,2.114,6.863,3.232,10.607,3.796 C76.352,88.379,91.161,82.628,100,71.71C96.061,69.427,91.816,67.684,87.422,66.495z" fill="#f86161" transform="scale(0.5883490407858304)" style="transform:matrix(0.588349, 0, 0, 0.588349, 0, 0);animation-play-state:paused" ></path></g>
<g transform="matrix(1,0,0,1,521.8143920898438,508.29248046875) matrix(0.7511957201436421,0.660079533115423,-0.660079533115423,0.7511957201436421,45.44419064858904,-20.563762662953252)" style="transform:matrix(0.751196, 0.66008, -0.66008, 0.751196, 567.259, 487.729);animation-play-state:paused" ><path d="M87.422,66.495c-2.009-0.544-4.049-0.97-6.107-1.283c10.617-11.116,15.747-27.37,13.129-42.549 c-5.236,1.77-10.223,4.252-14.824,7.313c-4.13,2.747-7.948,5.961-11.374,9.55C67.425,24.863,61.344,10.451,50.991,0 c-4.015,5.451-7.281,11.444-9.753,17.744c-3.579,9.122-5.501,18.893-5.669,28.691c-4.79-7.979-11.256-14.955-18.858-20.322 c-4.514-3.187-9.431-5.806-14.616-7.72c-3.361,16.717,2.731,35.015,15.445,46.379c0.369,0.33,0.745,0.654,1.126,0.972 c-2.359,0.411-4.689,0.983-6.969,1.714C7.582,68.775,3.634,70.61,0,72.945c8.85,9.963,23.134,14.771,36.208,12.186 c3.524-0.697,7.002-1.919,9.887-4.057c0.073-0.054,0.145-0.111,0.218-0.167c-0.987,5.662-2.714,11.136-5.104,16.221l7.509,2.806 c1.698-5.797,2.631-11.748,2.814-17.669c0.107,0.076,0.215,0.152,0.324,0.225c3.142,2.114,6.863,3.232,10.607,3.796 C76.352,88.379,91.161,82.628,100,71.71C96.061,69.427,91.816,67.684,87.422,66.495z" fill="#ff9f32" transform="scale(0.685985355907874)" style="transform:matrix(0.685985, 0, 0, 0.685985, 0, 0);animation-play-state:paused" ></path></g>
<g transform="matrix(1,0,0,1,1132.9658203125,339.2313537597656) matrix(0.3485110410948288,-0.9373046752443939,0.9373046752443939,0.3485110410948288,-14.290785816961133,79.43968170747826)" style="transform:matrix(0.348511, -0.937305, 0.937305, 0.348511, 1118.68, 418.671);animation-play-state:paused" ><path d="M87.422,66.495c-2.009-0.544-4.049-0.97-6.107-1.283c10.617-11.116,15.747-27.37,13.129-42.549 c-5.236,1.77-10.223,4.252-14.824,7.313c-4.13,2.747-7.948,5.961-11.374,9.55C67.425,24.863,61.344,10.451,50.991,0 c-4.015,5.451-7.281,11.444-9.753,17.744c-3.579,9.122-5.501,18.893-5.669,28.691c-4.79-7.979-11.256-14.955-18.858-20.322 c-4.514-3.187-9.431-5.806-14.616-7.72c-3.361,16.717,2.731,35.015,15.445,46.379c0.369,0.33,0.745,0.654,1.126,0.972 c-2.359,0.411-4.689,0.983-6.969,1.714C7.582,68.775,3.634,70.61,0,72.945c8.85,9.963,23.134,14.771,36.208,12.186 c3.524-0.697,7.002-1.919,9.887-4.057c0.073-0.054,0.145-0.111,0.218-0.167c-0.987,5.662-2.714,11.136-5.104,16.221l7.509,2.806 c1.698-5.797,2.631-11.748,2.814-17.669c0.107,0.076,0.215,0.152,0.324,0.225c3.142,2.114,6.863,3.232,10.607,3.796 C76.352,88.379,91.161,82.628,100,71.71C96.061,69.427,91.816,67.684,87.422,66.495z" fill="#ff9f32" transform="scale(0.9468867682347293)" style="transform:matrix(0.946887, 0, 0, 0.946887, 0, 0);animation-play-state:paused" ></path></g>
<g transform="matrix(1,0,0,1,425.0847473144531,-0.13134765625) matrix(0.2913437775091151,0.9566184209530565,-0.9566184209530565,0.2913437775091151,83.26373217219707,-12.398109923108578)" style="transform:matrix(0.291344, 0.956618, -0.956618, 0.291344, 508.348, -12.5295);animation-play-state:paused" ><path d="M87.422,66.495c-2.009-0.544-4.049-0.97-6.107-1.283c10.617-11.116,15.747-27.37,13.129-42.549 c-5.236,1.77-10.223,4.252-14.824,7.313c-4.13,2.747-7.948,5.961-11.374,9.55C67.425,24.863,61.344,10.451,50.991,0 c-4.015,5.451-7.281,11.444-9.753,17.744c-3.579,9.122-5.501,18.893-5.669,28.691c-4.79-7.979-11.256-14.955-18.858-20.322 c-4.514-3.187-9.431-5.806-14.616-7.72c-3.361,16.717,2.731,35.015,15.445,46.379c0.369,0.33,0.745,0.654,1.126,0.972 c-2.359,0.411-4.689,0.983-6.969,1.714C7.582,68.775,3.634,70.61,0,72.945c8.85,9.963,23.134,14.771,36.208,12.186 c3.524-0.697,7.002-1.919,9.887-4.057c0.073-0.054,0.145-0.111,0.218-0.167c-0.987,5.662-2.714,11.136-5.104,16.221l7.509,2.806 c1.698-5.797,2.631-11.748,2.814-17.669c0.107,0.076,0.215,0.152,0.324,0.225c3.142,2.114,6.863,3.232,10.607,3.796 C76.352,88.379,91.161,82.628,100,71.71C96.061,69.427,91.816,67.684,87.422,66.495z" fill="#ff9f32" transform="scale(1.02598660679556)" style="transform:matrix(1.02599, 0, 0, 1.02599, 0, 0);animation-play-state:paused" ></path></g>
<g transform="matrix(1,0,0,1,181.23971557617188,140.96563720703125) matrix(-0.5548860362449957,0.831926371009068,-0.831926371009068,-0.5548860362449957,119.34062036270318,36.147983261796384)" style="transform:matrix(-0.554886, 0.831926, -0.831926, -0.554886, 300.58, 177.114);animation-play-state:paused" ><path d="M87.422,66.495c-2.009-0.544-4.049-0.97-6.107-1.283c10.617-11.116,15.747-27.37,13.129-42.549 c-5.236,1.77-10.223,4.252-14.824,7.313c-4.13,2.747-7.948,5.961-11.374,9.55C67.425,24.863,61.344,10.451,50.991,0 c-4.015,5.451-7.281,11.444-9.753,17.744c-3.579,9.122-5.501,18.893-5.669,28.691c-4.79-7.979-11.256-14.955-18.858-20.322 c-4.514-3.187-9.431-5.806-14.616-7.72c-3.361,16.717,2.731,35.015,15.445,46.379c0.369,0.33,0.745,0.654,1.126,0.972 c-2.359,0.411-4.689,0.983-6.969,1.714C7.582,68.775,3.634,70.61,0,72.945c8.85,9.963,23.134,14.771,36.208,12.186 c3.524-0.697,7.002-1.919,9.887-4.057c0.073-0.054,0.145-0.111,0.218-0.167c-0.987,5.662-2.714,11.136-5.104,16.221l7.509,2.806 c1.698-5.797,2.631-11.748,2.814-17.669c0.107,0.076,0.215,0.152,0.324,0.225c3.142,2.114,6.863,3.232,10.607,3.796 C76.352,88.379,91.161,82.628,100,71.71C96.061,69.427,91.816,67.684,87.422,66.495z" fill="#ffc46c" transform="scale(1.0364089180723421)" style="transform:matrix(1.03641, 0, 0, 1.03641, 0, 0);animation-play-state:paused" ></path></g>
<g transform="matrix(1,0,0,1,1127.405517578125,615.1215209960938) matrix(0.906409955984069,0.4223990905446626,-0.4223990905446626,0.906409955984069,25.79945672802968,-16.440452326436585)" style="transform:matrix(0.90641, 0.422399, -0.422399, 0.90641, 1153.2, 598.681);animation-play-state:paused" ><path d="M87.422,66.495c-2.009-0.544-4.049-0.97-6.107-1.283c10.617-11.116,15.747-27.37,13.129-42.549 c-5.236,1.77-10.223,4.252-14.824,7.313c-4.13,2.747-7.948,5.961-11.374,9.55C67.425,24.863,61.344,10.451,50.991,0 c-4.015,5.451-7.281,11.444-9.753,17.744c-3.579,9.122-5.501,18.893-5.669,28.691c-4.79-7.979-11.256-14.955-18.858-20.322 c-4.514-3.187-9.431-5.806-14.616-7.72c-3.361,16.717,2.731,35.015,15.445,46.379c0.369,0.33,0.745,0.654,1.126,0.972 c-2.359,0.411-4.689,0.983-6.969,1.714C7.582,68.775,3.634,70.61,0,72.945c8.85,9.963,23.134,14.771,36.208,12.186 c3.524-0.697,7.002-1.919,9.887-4.057c0.073-0.054,0.145-0.111,0.218-0.167c-0.987,5.662-2.714,11.136-5.104,16.221l7.509,2.806 c1.698-5.797,2.631-11.748,2.814-17.669c0.107,0.076,0.215,0.152,0.324,0.225c3.142,2.114,6.863,3.232,10.607,3.796 C76.352,88.379,91.161,82.628,100,71.71C96.061,69.427,91.816,67.684,87.422,66.495z" fill="#ff9f32" transform="scale(0.6837602650842322)" style="transform:matrix(0.68376, 0, 0, 0.68376, 0, 0);animation-play-state:paused" ></path></g>
<g transform="matrix(1,0,0,1,1594.6103515625,577.7733154296875) matrix(-0.8264236416510604,-0.5630488118451186,0.5630488118451186,-0.8264236416510604,63.168741490297094,119.47362267480895)" style="transform:matrix(-0.826424, -0.563049, 0.563049, -0.826424, 1657.78, 697.247);animation-play-state:paused" ><path d="M87.422,66.495c-2.009-0.544-4.049-0.97-6.107-1.283c10.617-11.116,15.747-27.37,13.129-42.549 c-5.236,1.77-10.223,4.252-14.824,7.313c-4.13,2.747-7.948,5.961-11.374,9.55C67.425,24.863,61.344,10.451,50.991,0 c-4.015,5.451-7.281,11.444-9.753,17.744c-3.579,9.122-5.501,18.893-5.669,28.691c-4.79-7.979-11.256-14.955-18.858-20.322 c-4.514-3.187-9.431-5.806-14.616-7.72c-3.361,16.717,2.731,35.015,15.445,46.379c0.369,0.33,0.745,0.654,1.126,0.972 c-2.359,0.411-4.689,0.983-6.969,1.714C7.582,68.775,3.634,70.61,0,72.945c8.85,9.963,23.134,14.771,36.208,12.186 c3.524-0.697,7.002-1.919,9.887-4.057c0.073-0.054,0.145-0.111,0.218-0.167c-0.987,5.662-2.714,11.136-5.104,16.221l7.509,2.806 c1.698-5.797,2.631-11.748,2.814-17.669c0.107,0.076,0.215,0.152,0.324,0.225c3.142,2.114,6.863,3.232,10.607,3.796 C76.352,88.379,91.161,82.628,100,71.71C96.061,69.427,91.816,67.684,87.422,66.495z" fill="#ff9f32" transform="scale(1.1197449436808558)" style="transform:matrix(1.11974, 0, 0, 1.11974, 0, 0);animation-play-state:paused" ></path></g>
<g transform="matrix(1,0,0,1,949.770751953125,350.7277526855469) matrix(-0.7688806574388894,0.6393923166697744,-0.6393923166697744,-0.7688806574388894,120.41364870543319,56.474417038455755)" style="transform:matrix(-0.768881, 0.639392, -0.639392, -0.768881, 1070.18, 407.202);animation-play-state:paused" ><path d="M87.422,66.495c-2.009-0.544-4.049-0.97-6.107-1.283c10.617-11.116,15.747-27.37,13.129-42.549 c-5.236,1.77-10.223,4.252-14.824,7.313c-4.13,2.747-7.948,5.961-11.374,9.55C67.425,24.863,61.344,10.451,50.991,0 c-4.015,5.451-7.281,11.444-9.753,17.744c-3.579,9.122-5.501,18.893-5.669,28.691c-4.79-7.979-11.256-14.955-18.858-20.322 c-4.514-3.187-9.431-5.806-14.616-7.72c-3.361,16.717,2.731,35.015,15.445,46.379c0.369,0.33,0.745,0.654,1.126,0.972 c-2.359,0.411-4.689,0.983-6.969,1.714C7.582,68.775,3.634,70.61,0,72.945c8.85,9.963,23.134,14.771,36.208,12.186 c3.524-0.697,7.002-1.919,9.887-4.057c0.073-0.054,0.145-0.111,0.218-0.167c-0.987,5.662-2.714,11.136-5.104,16.221l7.509,2.806 c1.698-5.797,2.631-11.748,2.814-17.669c0.107,0.076,0.215,0.152,0.324,0.225c3.142,2.114,6.863,3.232,10.607,3.796 C76.352,88.379,91.161,82.628,100,71.71C96.061,69.427,91.816,67.684,87.422,66.495z" fill="#f86161" transform="scale(0.48806320533106107)" style="transform:matrix(0.488063, 0, 0, 0.488063, 0, 0);animation-play-state:paused" ></path></g>
<g transform="matrix(1,0,0,1,396.7172546386719,625.1286010742188) matrix(0.8102796246069459,-0.5860434539748965,0.5860434539748965,0.8102796246069459,-19.816153929092124,38.78819146839753)" style="transform:matrix(0.81028, -0.586043, 0.586043, 0.81028, 376.901, 663.917);animation-play-state:paused" ><path d="M87.422,66.495c-2.009-0.544-4.049-0.97-6.107-1.283c10.617-11.116,15.747-27.37,13.129-42.549 c-5.236,1.77-10.223,4.252-14.824,7.313c-4.13,2.747-7.948,5.961-11.374,9.55C67.425,24.863,61.344,10.451,50.991,0 c-4.015,5.451-7.281,11.444-9.753,17.744c-3.579,9.122-5.501,18.893-5.669,28.691c-4.79-7.979-11.256-14.955-18.858-20.322 c-4.514-3.187-9.431-5.806-14.616-7.72c-3.361,16.717,2.731,35.015,15.445,46.379c0.369,0.33,0.745,0.654,1.126,0.972 c-2.359,0.411-4.689,0.983-6.969,1.714C7.582,68.775,3.634,70.61,0,72.945c8.85,9.963,23.134,14.771,36.208,12.186 c3.524-0.697,7.002-1.919,9.887-4.057c0.073-0.054,0.145-0.111,0.218-0.167c-0.987,5.662-2.714,11.136-5.104,16.221l7.509,2.806 c1.698-5.797,2.631-11.748,2.814-17.669c0.107,0.076,0.215,0.152,0.324,0.225c3.142,2.114,6.863,3.232,10.607,3.796 C76.352,88.379,91.161,82.628,100,71.71C96.061,69.427,91.816,67.684,87.422,66.495z" fill="#ff956e" transform="scale(0.7399160718768274)" style="transform:matrix(0.739916, 0, 0, 0.739916, 0, 0);animation-play-state:paused" ></path></g>
<g transform="matrix(1,0,0,1,1082.319091796875,462.75360107421875) matrix(-0.97661656777708,0.21498855677295048,-0.21498855677295048,-0.97661656777708,109.58025622750152,88.08140055020647)" style="transform:matrix(-0.976617, 0.214989, -0.214989, -0.976617, 1191.9, 550.835);animation-play-state:paused" ><path d="M87.422,66.495c-2.009-0.544-4.049-0.97-6.107-1.283c10.617-11.116,15.747-27.37,13.129-42.549 c-5.236,1.77-10.223,4.252-14.824,7.313c-4.13,2.747-7.948,5.961-11.374,9.55C67.425,24.863,61.344,10.451,50.991,0 c-4.015,5.451-7.281,11.444-9.753,17.744c-3.579,9.122-5.501,18.893-5.669,28.691c-4.79-7.979-11.256-14.955-18.858-20.322 c-4.514-3.187-9.431-5.806-14.616-7.72c-3.361,16.717,2.731,35.015,15.445,46.379c0.369,0.33,0.745,0.654,1.126,0.972 c-2.359,0.411-4.689,0.983-6.969,1.714C7.582,68.775,3.634,70.61,0,72.945c8.85,9.963,23.134,14.771,36.208,12.186 c3.524-0.697,7.002-1.919,9.887-4.057c0.073-0.054,0.145-0.111,0.218-0.167c-0.987,5.662-2.714,11.136-5.104,16.221l7.509,2.806 c1.698-5.797,2.631-11.748,2.814-17.669c0.107,0.076,0.215,0.152,0.324,0.225c3.142,2.114,6.863,3.232,10.607,3.796 C76.352,88.379,91.161,82.628,100,71.71C96.061,69.427,91.816,67.684,87.422,66.495z" fill="#ff9f32" transform="scale(0.5573577765191149)" style="transform:matrix(0.557358, 0, 0, 0.557358, 0, 0);animation-play-state:paused" ></path></g>
<g transform="matrix(1,0,0,1,553.0372314453125,453.25482177734375) matrix(0.9787948293078269,-0.2048430670544207,0.2048430670544207,0.9787948293078269,-9.181894818112376,11.30241188732969)" style="transform:matrix(0.978795, -0.204843, 0.204843, 0.978795, 543.855, 464.557);animation-play-state:paused" ><path d="M87.422,66.495c-2.009-0.544-4.049-0.97-6.107-1.283c10.617-11.116,15.747-27.37,13.129-42.549 c-5.236,1.77-10.223,4.252-14.824,7.313c-4.13,2.747-7.948,5.961-11.374,9.55C67.425,24.863,61.344,10.451,50.991,0 c-4.015,5.451-7.281,11.444-9.753,17.744c-3.579,9.122-5.501,18.893-5.669,28.691c-4.79-7.979-11.256-14.955-18.858-20.322 c-4.514-3.187-9.431-5.806-14.616-7.72c-3.361,16.717,2.731,35.015,15.445,46.379c0.369,0.33,0.745,0.654,1.126,0.972 c-2.359,0.411-4.689,0.983-6.969,1.714C7.582,68.775,3.634,70.61,0,72.945c8.85,9.963,23.134,14.771,36.208,12.186 c3.524-0.697,7.002-1.919,9.887-4.057c0.073-0.054,0.145-0.111,0.218-0.167c-0.987,5.662-2.714,11.136-5.104,16.221l7.509,2.806 c1.698-5.797,2.631-11.748,2.814-17.669c0.107,0.076,0.215,0.152,0.324,0.225c3.142,2.114,6.863,3.232,10.607,3.796 C76.352,88.379,91.161,82.628,100,71.71C96.061,69.427,91.816,67.684,87.422,66.495z" fill="#ffc46c" transform="scale(1.104645361247807)" style="transform:matrix(1.10465, 0, 0, 1.10465, 0, 0);animation-play-state:paused" ></path></g>
<g transform="matrix(1,0,0,1,2724.82080078125,536.4234008789062) matrix(0.6794208256490339,-0.7337488273751346,0.7337488273751346,0.6794208256490339,-20.65848265120843,52.716400086305036)" style="transform:matrix(0.679421, -0.733749, 0.733749, 0.679421, 2704.16, 589.14);animation-play-state:paused" ><path d="M87.422,66.495c-2.009-0.544-4.049-0.97-6.107-1.283c10.617-11.116,15.747-27.37,13.129-42.549 c-5.236,1.77-10.223,4.252-14.824,7.313c-4.13,2.747-7.948,5.961-11.374,9.55C67.425,24.863,61.344,10.451,50.991,0 c-4.015,5.451-7.281,11.444-9.753,17.744c-3.579,9.122-5.501,18.893-5.669,28.691c-4.79-7.979-11.256-14.955-18.858-20.322 c-4.514-3.187-9.431-5.806-14.616-7.72c-3.361,16.717,2.731,35.015,15.445,46.379c0.369,0.33,0.745,0.654,1.126,0.972 c-2.359,0.411-4.689,0.983-6.969,1.714C7.582,68.775,3.634,70.61,0,72.945c8.85,9.963,23.134,14.771,36.208,12.186 c3.524-0.697,7.002-1.919,9.887-4.057c0.073-0.054,0.145-0.111,0.218-0.167c-0.987,5.662-2.714,11.136-5.104,16.221l7.509,2.806 c1.698-5.797,2.631-11.748,2.814-17.669c0.107,0.076,0.215,0.152,0.324,0.225c3.142,2.114,6.863,3.232,10.607,3.796 C76.352,88.379,91.161,82.628,100,71.71C96.061,69.427,91.816,67.684,87.422,66.495z" fill="#ff956e" transform="scale(0.6364956789226982)" style="transform:matrix(0.636496, 0, 0, 0.636496, 0, 0);animation-play-state:paused" ></path></g>
<g transform="matrix(1,0,0,1,1093.0277099609375,51.221160888671875) matrix(0.1897043620907975,0.9818412575379605,-0.9818412575379605,0.1897043620907975,89.60684477235816,-8.577280981437902)" style="transform:matrix(0.189704, 0.981841, -0.981841, 0.189704, 1182.63, 42.6439);animation-play-state:paused" ><path d="M87.422,66.495c-2.009-0.544-4.049-0.97-6.107-1.283c10.617-11.116,15.747-27.37,13.129-42.549 c-5.236,1.77-10.223,4.252-14.824,7.313c-4.13,2.747-7.948,5.961-11.374,9.55C67.425,24.863,61.344,10.451,50.991,0 c-4.015,5.451-7.281,11.444-9.753,17.744c-3.579,9.122-5.501,18.893-5.669,28.691c-4.79-7.979-11.256-14.955-18.858-20.322 c-4.514-3.187-9.431-5.806-14.616-7.72c-3.361,16.717,2.731,35.015,15.445,46.379c0.369,0.33,0.745,0.654,1.126,0.972 c-2.359,0.411-4.689,0.983-6.969,1.714C7.582,68.775,3.634,70.61,0,72.945c8.85,9.963,23.134,14.771,36.208,12.186 c3.524-0.697,7.002-1.919,9.887-4.057c0.073-0.054,0.145-0.111,0.218-0.167c-0.987,5.662-2.714,11.136-5.104,16.221l7.509,2.806 c1.698-5.797,2.631-11.748,2.814-17.669c0.107,0.076,0.215,0.152,0.324,0.225c3.142,2.114,6.863,3.232,10.607,3.796 C76.352,88.379,91.161,82.628,100,71.71C96.061,69.427,91.816,67.684,87.422,66.495z" fill="#ffc46c" transform="scale(0.8704954089283261)" style="transform:matrix(0.870495, 0, 0, 0.870495, 0, 0);animation-play-state:paused" ></path></g>
<g transform="matrix(1,0,0,1,1702.351806640625,397.99066162109375) matrix(0.832372235067243,0.5542169812349332,-0.5542169812349332,0.832372235067243,36.09223730838451,-19.329460815108817)" style="transform:matrix(0.832372, 0.554217, -0.554217, 0.832372, 1738.44, 378.661);animation-play-state:paused" ><path d="M87.422,66.495c-2.009-0.544-4.049-0.97-6.107-1.283c10.617-11.116,15.747-27.37,13.129-42.549 c-5.236,1.77-10.223,4.252-14.824,7.313c-4.13,2.747-7.948,5.961-11.374,9.55C67.425,24.863,61.344,10.451,50.991,0 c-4.015,5.451-7.281,11.444-9.753,17.744c-3.579,9.122-5.501,18.893-5.669,28.691c-4.79-7.979-11.256-14.955-18.858-20.322 c-4.514-3.187-9.431-5.806-14.616-7.72c-3.361,16.717,2.731,35.015,15.445,46.379c0.369,0.33,0.745,0.654,1.126,0.972 c-2.359,0.411-4.689,0.983-6.969,1.714C7.582,68.775,3.634,70.61,0,72.945c8.85,9.963,23.134,14.771,36.208,12.186 c3.524-0.697,7.002-1.919,9.887-4.057c0.073-0.054,0.145-0.111,0.218-0.167c-0.987,5.662-2.714,11.136-5.104,16.221l7.509,2.806 c1.698-5.797,2.631-11.748,2.814-17.669c0.107,0.076,0.215,0.152,0.324,0.225c3.142,2.114,6.863,3.232,10.607,3.796 C76.352,88.379,91.161,82.628,100,71.71C96.061,69.427,91.816,67.684,87.422,66.495z" fill="#f86161" transform="scale(1.0939530430655708)" style="transform:matrix(1.09395, 0, 0, 1.09395, 0, 0);animation-play-state:paused" ></path></g>
<g transform="matrix(1,0,0,1,1746.32421875,218.42715454101562) matrix(0.1333593082456838,-0.9910677549513114,0.9910677549513114,0.1333593082456838,-6.221353159849755,92.88542233528138)" style="transform:matrix(0.133359, -0.991068, 0.991068, 0.133359, 1740.1, 311.313);animation-play-state:paused" ><path d="M87.422,66.495c-2.009-0.544-4.049-0.97-6.107-1.283c10.617-11.116,15.747-27.37,13.129-42.549 c-5.236,1.77-10.223,4.252-14.824,7.313c-4.13,2.747-7.948,5.961-11.374,9.55C67.425,24.863,61.344,10.451,50.991,0 c-4.015,5.451-7.281,11.444-9.753,17.744c-3.579,9.122-5.501,18.893-5.669,28.691c-4.79-7.979-11.256-14.955-18.858-20.322 c-4.514-3.187-9.431-5.806-14.616-7.72c-3.361,16.717,2.731,35.015,15.445,46.379c0.369,0.33,0.745,0.654,1.126,0.972 c-2.359,0.411-4.689,0.983-6.969,1.714C7.582,68.775,3.634,70.61,0,72.945c8.85,9.963,23.134,14.771,36.208,12.186 c3.524-0.697,7.002-1.919,9.887-4.057c0.073-0.054,0.145-0.111,0.218-0.167c-0.987,5.662-2.714,11.136-5.104,16.221l7.509,2.806 c1.698-5.797,2.631-11.748,2.814-17.669c0.107,0.076,0.215,0.152,0.324,0.225c3.142,2.114,6.863,3.232,10.607,3.796 C76.352,88.379,91.161,82.628,100,71.71C96.061,69.427,91.816,67.684,87.422,66.495z" fill="#ff956e" transform="scale(0.897666323733113)" style="transform:matrix(0.897666, 0, 0, 0.897666, 0, 0);animation-play-state:paused" ></path></g>
<g transform="matrix(1,0,0,1,1100.4954833984375,534.0013427734375) matrix(0.3507880355944753,0.9364548863046042,-0.9364548863046042,0.3507880355944753,79.28334253550645,-14.362146094953971)" style="transform:matrix(0.350788, 0.936455, -0.936455, 0.350788, 1179.78, 519.639);animation-play-state:paused" ><path d="M87.422,66.495c-2.009-0.544-4.049-0.97-6.107-1.283c10.617-11.116,15.747-27.37,13.129-42.549 c-5.236,1.77-10.223,4.252-14.824,7.313c-4.13,2.747-7.948,5.961-11.374,9.55C67.425,24.863,61.344,10.451,50.991,0 c-4.015,5.451-7.281,11.444-9.753,17.744c-3.579,9.122-5.501,18.893-5.669,28.691c-4.79-7.979-11.256-14.955-18.858-20.322 c-4.514-3.187-9.431-5.806-14.616-7.72c-3.361,16.717,2.731,35.015,15.445,46.379c0.369,0.33,0.745,0.654,1.126,0.972 c-2.359,0.411-4.689,0.983-6.969,1.714C7.582,68.775,3.634,70.61,0,72.945c8.85,9.963,23.134,14.771,36.208,12.186 c3.524-0.697,7.002-1.919,9.887-4.057c0.073-0.054,0.145-0.111,0.218-0.167c-0.987,5.662-2.714,11.136-5.104,16.221l7.509,2.806 c1.698-5.797,2.631-11.748,2.814-17.669c0.107,0.076,0.215,0.152,0.324,0.225c3.142,2.114,6.863,3.232,10.607,3.796 C76.352,88.379,91.161,82.628,100,71.71C96.061,69.427,91.816,67.684,87.422,66.495z" fill="#ff956e" transform="scale(0.5502969053608883)" style="transform:matrix(0.550297, 0, 0, 0.550297, 0, 0);animation-play-state:paused" ></path></g>
<g transform="matrix(1,0,0,1,1287.549072265625,787.6837158203125) matrix(-0.8214398294643585,-0.5702951924833013,0.5702951924833013,-0.8214398294643585,62.557231849052854,119.58675109738299)" style="transform:matrix(-0.82144, -0.570295, 0.570295, -0.82144, 1350.11, 907.27);animation-play-state:paused" ><path d="M87.422,66.495c-2.009-0.544-4.049-0.97-6.107-1.283c10.617-11.116,15.747-27.37,13.129-42.549 c-5.236,1.77-10.223,4.252-14.824,7.313c-4.13,2.747-7.948,5.961-11.374,9.55C67.425,24.863,61.344,10.451,50.991,0 c-4.015,5.451-7.281,11.444-9.753,17.744c-3.579,9.122-5.501,18.893-5.669,28.691c-4.79-7.979-11.256-14.955-18.858-20.322 c-4.514-3.187-9.431-5.806-14.616-7.72c-3.361,16.717,2.731,35.015,15.445,46.379c0.369,0.33,0.745,0.654,1.126,0.972 c-2.359,0.411-4.689,0.983-6.969,1.714C7.582,68.775,3.634,70.61,0,72.945c8.85,9.963,23.134,14.771,36.208,12.186 c3.524-0.697,7.002-1.919,9.887-4.057c0.073-0.054,0.145-0.111,0.218-0.167c-0.987,5.662-2.714,11.136-5.104,16.221l7.509,2.806 c1.698-5.797,2.631-11.748,2.814-17.669c0.107,0.076,0.215,0.152,0.324,0.225c3.142,2.114,6.863,3.232,10.607,3.796 C76.352,88.379,91.161,82.628,100,71.71C96.061,69.427,91.816,67.684,87.422,66.495z" fill="#f86161" transform="scale(0.9927603864403232)" style="transform:matrix(0.99276, 0, 0, 0.99276, 0, 0);animation-play-state:paused" ></path></g>
<g transform="matrix(1,0,0,1,34.6058349609375,128.83738708496094) matrix(0.9518711154773543,0.3064985799639166,-0.3064985799639166,0.9518711154773543,17.731373224328117,-12.918484772063543)" style="transform:matrix(0.951871, 0.306499, -0.306499, 0.951871, 52.3372, 115.919);animation-play-state:paused" ><path d="M87.422,66.495c-2.009-0.544-4.049-0.97-6.107-1.283c10.617-11.116,15.747-27.37,13.129-42.549 c-5.236,1.77-10.223,4.252-14.824,7.313c-4.13,2.747-7.948,5.961-11.374,9.55C67.425,24.863,61.344,10.451,50.991,0 c-4.015,5.451-7.281,11.444-9.753,17.744c-3.579,9.122-5.501,18.893-5.669,28.691c-4.79-7.979-11.256-14.955-18.858-20.322 c-4.514-3.187-9.431-5.806-14.616-7.72c-3.361,16.717,2.731,35.015,15.445,46.379c0.369,0.33,0.745,0.654,1.126,0.972 c-2.359,0.411-4.689,0.983-6.969,1.714C7.582,68.775,3.634,70.61,0,72.945c8.85,9.963,23.134,14.771,36.208,12.186 c3.524-0.697,7.002-1.919,9.887-4.057c0.073-0.054,0.145-0.111,0.218-0.167c-0.987,5.662-2.714,11.136-5.104,16.221l7.509,2.806 c1.698-5.797,2.631-11.748,2.814-17.669c0.107,0.076,0.215,0.152,0.324,0.225c3.142,2.114,6.863,3.232,10.607,3.796 C76.352,88.379,91.161,82.628,100,71.71C96.061,69.427,91.816,67.684,87.422,66.495z" fill="#f86161" transform="scale(0.8285629945152699)" style="transform:matrix(0.828563, 0, 0, 0.828563, 0, 0);animation-play-state:paused" ></path></g>
<g transform="matrix(1,0,0,1,752.2133178710938,182.847412109375) matrix(0.14120506621491896,0.9899803681261767,-0.9899803681261767,0.14120506621491896,92.43876509556289,-6.559271717054784)" style="transform:matrix(0.141205, 0.98998, -0.98998, 0.141205, 844.652, 176.288);animation-play-state:paused" ><path d="M87.422,66.495c-2.009-0.544-4.049-0.97-6.107-1.283c10.617-11.116,15.747-27.37,13.129-42.549 c-5.236,1.77-10.223,4.252-14.824,7.313c-4.13,2.747-7.948,5.961-11.374,9.55C67.425,24.863,61.344,10.451,50.991,0 c-4.015,5.451-7.281,11.444-9.753,17.744c-3.579,9.122-5.501,18.893-5.669,28.691c-4.79-7.979-11.256-14.955-18.858-20.322 c-4.514-3.187-9.431-5.806-14.616-7.72c-3.361,16.717,2.731,35.015,15.445,46.379c0.369,0.33,0.745,0.654,1.126,0.972 c-2.359,0.411-4.689,0.983-6.969,1.714C7.582,68.775,3.634,70.61,0,72.945c8.85,9.963,23.134,14.771,36.208,12.186 c3.524-0.697,7.002-1.919,9.887-4.057c0.073-0.054,0.145-0.111,0.218-0.167c-0.987,5.662-2.714,11.136-5.104,16.221l7.509,2.806 c1.698-5.797,2.631-11.748,2.814-17.669c0.107,0.076,0.215,0.152,0.324,0.225c3.142,2.114,6.863,3.232,10.607,3.796 C76.352,88.379,91.161,82.628,100,71.71C96.061,69.427,91.816,67.684,87.422,66.495z" fill="#f86161" transform="scale(0.9920324156021757)" style="transform:matrix(0.992032, 0, 0, 0.992032, 0, 0);animation-play-state:paused" ></path></g>
<g transform="matrix(1,0,0,1,607.5217895507812,600.914794921875) matrix(0.6808194992676254,-0.7324512334735875,0.7324512334735875,0.6808194992676254,-20.663536637060645,52.581586710298104)" style="transform:matrix(0.680819, -0.732451, 0.732451, 0.680819, 586.858, 653.496);animation-play-state:paused" ><path d="M87.422,66.495c-2.009-0.544-4.049-0.97-6.107-1.283c10.617-11.116,15.747-27.37,13.129-42.549 c-5.236,1.77-10.223,4.252-14.824,7.313c-4.13,2.747-7.948,5.961-11.374,9.55C67.425,24.863,61.344,10.451,50.991,0 c-4.015,5.451-7.281,11.444-9.753,17.744c-3.579,9.122-5.501,18.893-5.669,28.691c-4.79-7.979-11.256-14.955-18.858-20.322 c-4.514-3.187-9.431-5.806-14.616-7.72c-3.361,16.717,2.731,35.015,15.445,46.379c0.369,0.33,0.745,0.654,1.126,0.972 c-2.359,0.411-4.689,0.983-6.969,1.714C7.582,68.775,3.634,70.61,0,72.945c8.85,9.963,23.134,14.771,36.208,12.186 c3.524-0.697,7.002-1.919,9.887-4.057c0.073-0.054,0.145-0.111,0.218-0.167c-0.987,5.662-2.714,11.136-5.104,16.221l7.509,2.806 c1.698-5.797,2.631-11.748,2.814-17.669c0.107,0.076,0.215,0.152,0.324,0.225c3.142,2.114,6.863,3.232,10.607,3.796 C76.352,88.379,91.161,82.628,100,71.71C96.061,69.427,91.816,67.684,87.422,66.495z" fill="#ffc46c" transform="scale(1.0617473089377796)" style="transform:matrix(1.06175, 0, 0, 1.06175, 0, 0);animation-play-state:paused" ></path></g>
<g transform="matrix(1,0,0,1,454.6154479980469,-76.14739227294922) matrix(0.9692047315591003,0.2462563467678599,-0.2462563467678599,0.9692047315591003,13.85258076043798,-10.773053916348012)" style="transform:matrix(0.969205, 0.246256, -0.246256, 0.969205, 468.468, -86.9204);animation-play-state:paused" ><path d="M87.422,66.495c-2.009-0.544-4.049-0.97-6.107-1.283c10.617-11.116,15.747-27.37,13.129-42.549 c-5.236,1.77-10.223,4.252-14.824,7.313c-4.13,2.747-7.948,5.961-11.374,9.55C67.425,24.863,61.344,10.451,50.991,0 c-4.015,5.451-7.281,11.444-9.753,17.744c-3.579,9.122-5.501,18.893-5.669,28.691c-4.79-7.979-11.256-14.955-18.858-20.322 c-4.514-3.187-9.431-5.806-14.616-7.72c-3.361,16.717,2.731,35.015,15.445,46.379c0.369,0.33,0.745,0.654,1.126,0.972 c-2.359,0.411-4.689,0.983-6.969,1.714C7.582,68.775,3.634,70.61,0,72.945c8.85,9.963,23.134,14.771,36.208,12.186 c3.524-0.697,7.002-1.919,9.887-4.057c0.073-0.054,0.145-0.111,0.218-0.167c-0.987,5.662-2.714,11.136-5.104,16.221l7.509,2.806 c1.698-5.797,2.631-11.748,2.814-17.669c0.107,0.076,0.215,0.152,0.324,0.225c3.142,2.114,6.863,3.232,10.607,3.796 C76.352,88.379,91.161,82.628,100,71.71C96.061,69.427,91.816,67.684,87.422,66.495z" fill="#ff9f32" transform="scale(0.9169527263682309)" style="transform:matrix(0.916953, 0, 0, 0.916953, 0, 0);animation-play-state:paused" ></path></g>
<g transform="matrix(1,0,0,1,55.46110534667969,417.74365234375) matrix(0.9645192840603861,0.2640124062911443,-0.2640124062911443,0.9645192840603861,14.974656111537904,-11.426584517576522)" style="transform:matrix(0.964519, 0.264012, -0.264012, 0.964519, 70.4358, 406.317);animation-play-state:paused" ><path d="M87.422,66.495c-2.009-0.544-4.049-0.97-6.107-1.283c10.617-11.116,15.747-27.37,13.129-42.549 c-5.236,1.77-10.223,4.252-14.824,7.313c-4.13,2.747-7.948,5.961-11.374,9.55C67.425,24.863,61.344,10.451,50.991,0 c-4.015,5.451-7.281,11.444-9.753,17.744c-3.579,9.122-5.501,18.893-5.669,28.691c-4.79-7.979-11.256-14.955-18.858-20.322 c-4.514-3.187-9.431-5.806-14.616-7.72c-3.361,16.717,2.731,35.015,15.445,46.379c0.369,0.33,0.745,0.654,1.126,0.972 c-2.359,0.411-4.689,0.983-6.969,1.714C7.582,68.775,3.634,70.61,0,72.945c8.85,9.963,23.134,14.771,36.208,12.186 c3.524-0.697,7.002-1.919,9.887-4.057c0.073-0.054,0.145-0.111,0.218-0.167c-0.987,5.662-2.714,11.136-5.104,16.221l7.509,2.806 c1.698-5.797,2.631-11.748,2.814-17.669c0.107,0.076,0.215,0.152,0.324,0.225c3.142,2.114,6.863,3.232,10.607,3.796 C76.352,88.379,91.161,82.628,100,71.71C96.061,69.427,91.816,67.684,87.422,66.495z" fill="#f86161" transform="scale(0.5378707648531638)" style="transform:matrix(0.537871, 0, 0, 0.537871, 0, 0);animation-play-state:paused" ></path></g>
<g transform="matrix(1,0,0,1,1370.5938720703125,279.5033874511719) matrix(-0.42778667792465763,0.9038797255111906,-0.9038797255111906,-0.42778667792465763,116.58332017179241,26.195347620673356)" style="transform:matrix(-0.427787, 0.90388, -0.90388, -0.427787, 1487.18, 305.699);animation-play-state:paused" ><path d="M87.422,66.495c-2.009-0.544-4.049-0.97-6.107-1.283c10.617-11.116,15.747-27.37,13.129-42.549 c-5.236,1.77-10.223,4.252-14.824,7.313c-4.13,2.747-7.948,5.961-11.374,9.55C67.425,24.863,61.344,10.451,50.991,0 c-4.015,5.451-7.281,11.444-9.753,17.744c-3.579,9.122-5.501,18.893-5.669,28.691c-4.79-7.979-11.256-14.955-18.858-20.322 c-4.514-3.187-9.431-5.806-14.616-7.72c-3.361,16.717,2.731,35.015,15.445,46.379c0.369,0.33,0.745,0.654,1.126,0.972 c-2.359,0.411-4.689,0.983-6.969,1.714C7.582,68.775,3.634,70.61,0,72.945c8.85,9.963,23.134,14.771,36.208,12.186 c3.524-0.697,7.002-1.919,9.887-4.057c0.073-0.054,0.145-0.111,0.218-0.167c-0.987,5.662-2.714,11.136-5.104,16.221l7.509,2.806 c1.698-5.797,2.631-11.748,2.814-17.669c0.107,0.076,0.215,0.152,0.324,0.225c3.142,2.114,6.863,3.232,10.607,3.796 C76.352,88.379,91.161,82.628,100,71.71C96.061,69.427,91.816,67.684,87.422,66.495z" fill="#ff956e" transform="scale(0.5897519668764754)" style="transform:matrix(0.589752, 0, 0, 0.589752, 0, 0);animation-play-state:paused" ></path></g>
<g transform="matrix(1,0,0,1,415.862548828125,359.6571044921875) matrix(0.1801496910415209,-0.9836392066289573,0.9836392066289573,0.1801496910415209,-8.189444883523912,90.17447577937182)" style="transform:matrix(0.18015, -0.983639, 0.983639, 0.18015, 407.673, 449.832);animation-play-state:paused" ><path d="M87.422,66.495c-2.009-0.544-4.049-0.97-6.107-1.283c10.617-11.116,15.747-27.37,13.129-42.549 c-5.236,1.77-10.223,4.252-14.824,7.313c-4.13,2.747-7.948,5.961-11.374,9.55C67.425,24.863,61.344,10.451,50.991,0 c-4.015,5.451-7.281,11.444-9.753,17.744c-3.579,9.122-5.501,18.893-5.669,28.691c-4.79-7.979-11.256-14.955-18.858-20.322 c-4.514-3.187-9.431-5.806-14.616-7.72c-3.361,16.717,2.731,35.015,15.445,46.379c0.369,0.33,0.745,0.654,1.126,0.972 c-2.359,0.411-4.689,0.983-6.969,1.714C7.582,68.775,3.634,70.61,0,72.945c8.85,9.963,23.134,14.771,36.208,12.186 c3.524-0.697,7.002-1.919,9.887-4.057c0.073-0.054,0.145-0.111,0.218-0.167c-0.987,5.662-2.714,11.136-5.104,16.221l7.509,2.806 c1.698-5.797,2.631-11.748,2.814-17.669c0.107,0.076,0.215,0.152,0.324,0.225c3.142,2.114,6.863,3.232,10.607,3.796 C76.352,88.379,91.161,82.628,100,71.71C96.061,69.427,91.816,67.684,87.422,66.495z" fill="#ff956e" transform="scale(1.0239043871826154)" style="transform:matrix(1.0239, 0, 0, 1.0239, 0, 0);animation-play-state:paused" ></path></g>
<g transform="matrix(1,0,0,1,1111.86572265625,210.81689453125) matrix(0.9188666742846645,-0.3945681625385406,0.3945681625385406,0.9188666742846645,-15.671741841160255,23.785074412693803)" style="transform:matrix(0.918867, -0.394568, 0.394568, 0.918867, 1096.19, 234.602);animation-play-state:paused" ><path d="M87.422,66.495c-2.009-0.544-4.049-0.97-6.107-1.283c10.617-11.116,15.747-27.37,13.129-42.549 c-5.236,1.77-10.223,4.252-14.824,7.313c-4.13,2.747-7.948,5.961-11.374,9.55C67.425,24.863,61.344,10.451,50.991,0 c-4.015,5.451-7.281,11.444-9.753,17.744c-3.579,9.122-5.501,18.893-5.669,28.691c-4.79-7.979-11.256-14.955-18.858-20.322 c-4.514-3.187-9.431-5.806-14.616-7.72c-3.361,16.717,2.731,35.015,15.445,46.379c0.369,0.33,0.745,0.654,1.126,0.972 c-2.359,0.411-4.689,0.983-6.969,1.714C7.582,68.775,3.634,70.61,0,72.945c8.85,9.963,23.134,14.771,36.208,12.186 c3.524-0.697,7.002-1.919,9.887-4.057c0.073-0.054,0.145-0.111,0.218-0.167c-0.987,5.662-2.714,11.136-5.104,16.221l7.509,2.806 c1.698-5.797,2.631-11.748,2.814-17.669c0.107,0.076,0.215,0.152,0.324,0.225c3.142,2.114,6.863,3.232,10.607,3.796 C76.352,88.379,91.161,82.628,100,71.71C96.061,69.427,91.816,67.684,87.422,66.495z" fill="#ff956e" transform="scale(0.5394031934787903)" style="transform:matrix(0.539403, 0, 0, 0.539403, 0, 0);animation-play-state:paused" ></path></g>
<g transform="matrix(1,0,0,1,31.328887939453125,358.5008850097656) matrix(0.6153123653644228,0.788283383707686,-0.788283383707686,0.6153123653644228,58.64855091716316,-20.179787453605442)" style="transform:matrix(0.615312, 0.788283, -0.788283, 0.615312, 89.9774, 338.321);animation-play-state:paused" ><path d="M87.422,66.495c-2.009-0.544-4.049-0.97-6.107-1.283c10.617-11.116,15.747-27.37,13.129-42.549 c-5.236,1.77-10.223,4.252-14.824,7.313c-4.13,2.747-7.948,5.961-11.374,9.55C67.425,24.863,61.344,10.451,50.991,0 c-4.015,5.451-7.281,11.444-9.753,17.744c-3.579,9.122-5.501,18.893-5.669,28.691c-4.79-7.979-11.256-14.955-18.858-20.322 c-4.514-3.187-9.431-5.806-14.616-7.72c-3.361,16.717,2.731,35.015,15.445,46.379c0.369,0.33,0.745,0.654,1.126,0.972 c-2.359,0.411-4.689,0.983-6.969,1.714C7.582,68.775,3.634,70.61,0,72.945c8.85,9.963,23.134,14.771,36.208,12.186 c3.524-0.697,7.002-1.919,9.887-4.057c0.073-0.054,0.145-0.111,0.218-0.167c-0.987,5.662-2.714,11.136-5.104,16.221l7.509,2.806 c1.698-5.797,2.631-11.748,2.814-17.669c0.107,0.076,0.215,0.152,0.324,0.225c3.142,2.114,6.863,3.232,10.607,3.796 C76.352,88.379,91.161,82.628,100,71.71C96.061,69.427,91.816,67.684,87.422,66.495z" fill="#ffc46c" transform="scale(0.7388160515857853)" style="transform:matrix(0.738816, 0, 0, 0.738816, 0, 0);animation-play-state:paused" ></path></g>
<g transform="matrix(1,0,0,1,420.582763671875,591.5781860351562) matrix(0.9854252455074851,-0.1701090400787467,0.1701090400787467,0.9854252455074851,-7.776714279311591,9.23418972856308)" style="transform:matrix(0.985425, -0.170109, 0.170109, 0.985425, 412.806, 600.812);animation-play-state:paused" ><path d="M87.422,66.495c-2.009-0.544-4.049-0.97-6.107-1.283c10.617-11.116,15.747-27.37,13.129-42.549 c-5.236,1.77-10.223,4.252-14.824,7.313c-4.13,2.747-7.948,5.961-11.374,9.55C67.425,24.863,61.344,10.451,50.991,0 c-4.015,5.451-7.281,11.444-9.753,17.744c-3.579,9.122-5.501,18.893-5.669,28.691c-4.79-7.979-11.256-14.955-18.858-20.322 c-4.514-3.187-9.431-5.806-14.616-7.72c-3.361,16.717,2.731,35.015,15.445,46.379c0.369,0.33,0.745,0.654,1.126,0.972 c-2.359,0.411-4.689,0.983-6.969,1.714C7.582,68.775,3.634,70.61,0,72.945c8.85,9.963,23.134,14.771,36.208,12.186 c3.524-0.697,7.002-1.919,9.887-4.057c0.073-0.054,0.145-0.111,0.218-0.167c-0.987,5.662-2.714,11.136-5.104,16.221l7.509,2.806 c1.698-5.797,2.631-11.748,2.814-17.669c0.107,0.076,0.215,0.152,0.324,0.225c3.142,2.114,6.863,3.232,10.607,3.796 C76.352,88.379,91.161,82.628,100,71.71C96.061,69.427,91.816,67.684,87.422,66.495z" fill="#ffc46c" transform="scale(0.5908534555707504)" style="transform:matrix(0.590854, 0, 0, 0.590854, 0, 0);animation-play-state:paused" ></path></g>
<g transform="matrix(1,0,0,1,171.65562438964844,-22.339157104492188) matrix(0.37056683705481375,0.9288058027785955,-0.9288058027785955,0.37056683705481375,77.91194828618909,-14.968631991670463)" style="transform:matrix(0.370567, 0.928806, -0.928806, 0.370567, 249.568, -37.3078);animation-play-state:paused" ><path d="M87.422,66.495c-2.009-0.544-4.049-0.97-6.107-1.283c10.617-11.116,15.747-27.37,13.129-42.549 c-5.236,1.77-10.223,4.252-14.824,7.313c-4.13,2.747-7.948,5.961-11.374,9.55C67.425,24.863,61.344,10.451,50.991,0 c-4.015,5.451-7.281,11.444-9.753,17.744c-3.579,9.122-5.501,18.893-5.669,28.691c-4.79-7.979-11.256-14.955-18.858-20.322 c-4.514-3.187-9.431-5.806-14.616-7.72c-3.361,16.717,2.731,35.015,15.445,46.379c0.369,0.33,0.745,0.654,1.126,0.972 c-2.359,0.411-4.689,0.983-6.969,1.714C7.582,68.775,3.634,70.61,0,72.945c8.85,9.963,23.134,14.771,36.208,12.186 c3.524-0.697,7.002-1.919,9.887-4.057c0.073-0.054,0.145-0.111,0.218-0.167c-0.987,5.662-2.714,11.136-5.104,16.221l7.509,2.806 c1.698-5.797,2.631-11.748,2.814-17.669c0.107,0.076,0.215,0.152,0.324,0.225c3.142,2.114,6.863,3.232,10.607,3.796 C76.352,88.379,91.161,82.628,100,71.71C96.061,69.427,91.816,67.684,87.422,66.495z" fill="#ff956e" transform="scale(0.9678089218773487)" style="transform:matrix(0.967809, 0, 0, 0.967809, 0, 0);animation-play-state:paused" ></path></g>
<g transform="matrix(1,0,0,1,914.3853759765625,803.5582275390625) matrix(-0.5888576972406437,-0.8082367304202689,0.8082367304202689,-0.5888576972406437,39.031048341018746,119.85472138304563)" style="transform:matrix(-0.588858, -0.808237, 0.808237, -0.588858, 953.416, 923.413);animation-play-state:paused" ><path d="M87.422,66.495c-2.009-0.544-4.049-0.97-6.107-1.283c10.617-11.116,15.747-27.37,13.129-42.549 c-5.236,1.77-10.223,4.252-14.824,7.313c-4.13,2.747-7.948,5.961-11.374,9.55C67.425,24.863,61.344,10.451,50.991,0 c-4.015,5.451-7.281,11.444-9.753,17.744c-3.579,9.122-5.501,18.893-5.669,28.691c-4.79-7.979-11.256-14.955-18.858-20.322 c-4.514-3.187-9.431-5.806-14.616-7.72c-3.361,16.717,2.731,35.015,15.445,46.379c0.369,0.33,0.745,0.654,1.126,0.972 c-2.359,0.411-4.689,0.983-6.969,1.714C7.582,68.775,3.634,70.61,0,72.945c8.85,9.963,23.134,14.771,36.208,12.186 c3.524-0.697,7.002-1.919,9.887-4.057c0.073-0.054,0.145-0.111,0.218-0.167c-0.987,5.662-2.714,11.136-5.104,16.221l7.509,2.806 c1.698-5.797,2.631-11.748,2.814-17.669c0.107,0.076,0.215,0.152,0.324,0.225c3.142,2.114,6.863,3.232,10.607,3.796 C76.352,88.379,91.161,82.628,100,71.71C96.061,69.427,91.816,67.684,87.422,66.495z" fill="#ff956e" transform="scale(0.7027252065784364)" style="transform:matrix(0.702725, 0, 0, 0.702725, 0, 0);animation-play-state:paused" ></path></g>
<g transform="matrix(1,0,0,1,838.8695678710938,724.7184448242188) matrix(0.2991870657233067,-0.9541944768776843,0.9541944768776843,0.2991870657233067,-12.669077130049558,82.75037055771888)" style="transform:matrix(0.299187, -0.954194, 0.954194, 0.299187, 826.2, 807.469);animation-play-state:paused" ><path d="M87.422,66.495c-2.009-0.544-4.049-0.97-6.107-1.283c10.617-11.116,15.747-27.37,13.129-42.549 c-5.236,1.77-10.223,4.252-14.824,7.313c-4.13,2.747-7.948,5.961-11.374,9.55C67.425,24.863,61.344,10.451,50.991,0 c-4.015,5.451-7.281,11.444-9.753,17.744c-3.579,9.122-5.501,18.893-5.669,28.691c-4.79-7.979-11.256-14.955-18.858-20.322 c-4.514-3.187-9.431-5.806-14.616-7.72c-3.361,16.717,2.731,35.015,15.445,46.379c0.369,0.33,0.745,0.654,1.126,0.972 c-2.359,0.411-4.689,0.983-6.969,1.714C7.582,68.775,3.634,70.61,0,72.945c8.85,9.963,23.134,14.771,36.208,12.186 c3.524-0.697,7.002-1.919,9.887-4.057c0.073-0.054,0.145-0.111,0.218-0.167c-0.987,5.662-2.714,11.136-5.104,16.221l7.509,2.806 c1.698-5.797,2.631-11.748,2.814-17.669c0.107,0.076,0.215,0.152,0.324,0.225c3.142,2.114,6.863,3.232,10.607,3.796 C76.352,88.379,91.161,82.628,100,71.71C96.061,69.427,91.816,67.684,87.422,66.495z" fill="#ff9f32" transform="scale(0.8156420945285778)" style="transform:matrix(0.815642, 0, 0, 0.815642, 0, 0);animation-play-state:paused" ></path></g>
<g transform="matrix(1,0,0,1,1365.34423828125,560.393798828125) matrix(0.5496111403192004,0.8354206092963162,-0.8354206092963162,0.5496111403192004,64.29047344885578,-19.25158748077584)" style="transform:matrix(0.549611, 0.835421, -0.835421, 0.549611, 1429.63, 541.142);animation-play-state:paused" ><path d="M87.422,66.495c-2.009-0.544-4.049-0.97-6.107-1.283c10.617-11.116,15.747-27.37,13.129-42.549 c-5.236,1.77-10.223,4.252-14.824,7.313c-4.13,2.747-7.948,5.961-11.374,9.55C67.425,24.863,61.344,10.451,50.991,0 c-4.015,5.451-7.281,11.444-9.753,17.744c-3.579,9.122-5.501,18.893-5.669,28.691c-4.79-7.979-11.256-14.955-18.858-20.322 c-4.514-3.187-9.431-5.806-14.616-7.72c-3.361,16.717,2.731,35.015,15.445,46.379c0.369,0.33,0.745,0.654,1.126,0.972 c-2.359,0.411-4.689,0.983-6.969,1.714C7.582,68.775,3.634,70.61,0,72.945c8.85,9.963,23.134,14.771,36.208,12.186 c3.524-0.697,7.002-1.919,9.887-4.057c0.073-0.054,0.145-0.111,0.218-0.167c-0.987,5.662-2.714,11.136-5.104,16.221l7.509,2.806 c1.698-5.797,2.631-11.748,2.814-17.669c0.107,0.076,0.215,0.152,0.324,0.225c3.142,2.114,6.863,3.232,10.607,3.796 C76.352,88.379,91.161,82.628,100,71.71C96.061,69.427,91.816,67.684,87.422,66.495z" fill="#ff956e" transform="scale(0.49595716614992497)" style="transform:matrix(0.495957, 0, 0, 0.495957, 0, 0);animation-play-state:paused" ></path></g>
<g transform="matrix(1,0,0,1,729.3162841796875,209.8216552734375) matrix(0.14556402028732454,0.989348834333872,-0.989348834333872,0.14556402028732454,92.18924070232737,-6.745642731059824)" style="transform:matrix(0.145564, 0.989349, -0.989349, 0.145564, 821.506, 203.076);animation-play-state:paused" ><path d="M87.422,66.495c-2.009-0.544-4.049-0.97-6.107-1.283c10.617-11.116,15.747-27.37,13.129-42.549 c-5.236,1.77-10.223,4.252-14.824,7.313c-4.13,2.747-7.948,5.961-11.374,9.55C67.425,24.863,61.344,10.451,50.991,0 c-4.015,5.451-7.281,11.444-9.753,17.744c-3.579,9.122-5.501,18.893-5.669,28.691c-4.79-7.979-11.256-14.955-18.858-20.322 c-4.514-3.187-9.431-5.806-14.616-7.72c-3.361,16.717,2.731,35.015,15.445,46.379c0.369,0.33,0.745,0.654,1.126,0.972 c-2.359,0.411-4.689,0.983-6.969,1.714C7.582,68.775,3.634,70.61,0,72.945c8.85,9.963,23.134,14.771,36.208,12.186 c3.524-0.697,7.002-1.919,9.887-4.057c0.073-0.054,0.145-0.111,0.218-0.167c-0.987,5.662-2.714,11.136-5.104,16.221l7.509,2.806 c1.698-5.797,2.631-11.748,2.814-17.669c0.107,0.076,0.215,0.152,0.324,0.225c3.142,2.114,6.863,3.232,10.607,3.796 C76.352,88.379,91.161,82.628,100,71.71C96.061,69.427,91.816,67.684,87.422,66.495z" fill="#f86161" transform="scale(1.0234456279272865)" style="transform:matrix(1.02345, 0, 0, 1.02345, 0, 0);animation-play-state:paused" ></path></g>
<g transform="matrix(1,0,0,1,1072.0777587890625,298.002197265625) matrix(-0.8719791732643017,0.4895429719578302,-0.4895429719578302,-0.8719791732643017,118.0761072611066,69.12181006532357)" style="transform:matrix(-0.871979, 0.489543, -0.489543, -0.871979, 1190.15, 367.124);animation-play-state:paused" ><path d="M87.422,66.495c-2.009-0.544-4.049-0.97-6.107-1.283c10.617-11.116,15.747-27.37,13.129-42.549 c-5.236,1.77-10.223,4.252-14.824,7.313c-4.13,2.747-7.948,5.961-11.374,9.55C67.425,24.863,61.344,10.451,50.991,0 c-4.015,5.451-7.281,11.444-9.753,17.744c-3.579,9.122-5.501,18.893-5.669,28.691c-4.79-7.979-11.256-14.955-18.858-20.322 c-4.514-3.187-9.431-5.806-14.616-7.72c-3.361,16.717,2.731,35.015,15.445,46.379c0.369,0.33,0.745,0.654,1.126,0.972 c-2.359,0.411-4.689,0.983-6.969,1.714C7.582,68.775,3.634,70.61,0,72.945c8.85,9.963,23.134,14.771,36.208,12.186 c3.524-0.697,7.002-1.919,9.887-4.057c0.073-0.054,0.145-0.111,0.218-0.167c-0.987,5.662-2.714,11.136-5.104,16.221l7.509,2.806 c1.698-5.797,2.631-11.748,2.814-17.669c0.107,0.076,0.215,0.152,0.324,0.225c3.142,2.114,6.863,3.232,10.607,3.796 C76.352,88.379,91.161,82.628,100,71.71C96.061,69.427,91.816,67.684,87.422,66.495z" fill="#ffc46c" transform="scale(0.48708461405959014)" style="transform:matrix(0.487085, 0, 0, 0.487085, 0, 0);animation-play-state:paused" ></path></g>
<g transform="matrix(1,0,0,1,972.2799072265625,52.343963623046875) matrix(0.8776000504962542,0.47939352453800627,-0.47939352453800627,0.8776000504962542,30.0896737020876,-17.849678751713014)" style="transform:matrix(0.8776, 0.479394, -0.479394, 0.8776, 1002.37, 34.4943);animation-play-state:paused" ><path d="M87.422,66.495c-2.009-0.544-4.049-0.97-6.107-1.283c10.617-11.116,15.747-27.37,13.129-42.549 c-5.236,1.77-10.223,4.252-14.824,7.313c-4.13,2.747-7.948,5.961-11.374,9.55C67.425,24.863,61.344,10.451,50.991,0 c-4.015,5.451-7.281,11.444-9.753,17.744c-3.579,9.122-5.501,18.893-5.669,28.691c-4.79-7.979-11.256-14.955-18.858-20.322 c-4.514-3.187-9.431-5.806-14.616-7.72c-3.361,16.717,2.731,35.015,15.445,46.379c0.369,0.33,0.745,0.654,1.126,0.972 c-2.359,0.411-4.689,0.983-6.969,1.714C7.582,68.775,3.634,70.61,0,72.945c8.85,9.963,23.134,14.771,36.208,12.186 c3.524-0.697,7.002-1.919,9.887-4.057c0.073-0.054,0.145-0.111,0.218-0.167c-0.987,5.662-2.714,11.136-5.104,16.221l7.509,2.806 c1.698-5.797,2.631-11.748,2.814-17.669c0.107,0.076,0.215,0.152,0.324,0.225c3.142,2.114,6.863,3.232,10.607,3.796 C76.352,88.379,91.161,82.628,100,71.71C96.061,69.427,91.816,67.684,87.422,66.495z" fill="#ffc46c" transform="scale(1.0674058716329053)" style="transform:matrix(1.06741, 0, 0, 1.06741, 0, 0);animation-play-state:paused" ></path></g>
<g transform="matrix(1,0,0,1,452.9515380859375,595.9739990234375) matrix(-0.5636429090424419,-0.8260185658241427,0.8260185658241427,-0.5636429090424419,36.88121716091496,119.48307374332923)" style="transform:matrix(-0.563643, -0.826019, 0.826019, -0.563643, 489.833, 715.457);animation-play-state:paused" ><path d="M87.422,66.495c-2.009-0.544-4.049-0.97-6.107-1.283c10.617-11.116,15.747-27.37,13.129-42.549 c-5.236,1.77-10.223,4.252-14.824,7.313c-4.13,2.747-7.948,5.961-11.374,9.55C67.425,24.863,61.344,10.451,50.991,0 c-4.015,5.451-7.281,11.444-9.753,17.744c-3.579,9.122-5.501,18.893-5.669,28.691c-4.79-7.979-11.256-14.955-18.858-20.322 c-4.514-3.187-9.431-5.806-14.616-7.72c-3.361,16.717,2.731,35.015,15.445,46.379c0.369,0.33,0.745,0.654,1.126,0.972 c-2.359,0.411-4.689,0.983-6.969,1.714C7.582,68.775,3.634,70.61,0,72.945c8.85,9.963,23.134,14.771,36.208,12.186 c3.524-0.697,7.002-1.919,9.887-4.057c0.073-0.054,0.145-0.111,0.218-0.167c-0.987,5.662-2.714,11.136-5.104,16.221l7.509,2.806 c1.698-5.797,2.631-11.748,2.814-17.669c0.107,0.076,0.215,0.152,0.324,0.225c3.142,2.114,6.863,3.232,10.607,3.796 C76.352,88.379,91.161,82.628,100,71.71C96.061,69.427,91.816,67.684,87.422,66.495z" fill="#ff9f32" transform="scale(1.072514930738754)" style="transform:matrix(1.07251, 0, 0, 1.07251, 0, 0);animation-play-state:paused" ></path></g>
<g transform="matrix(1,0,0,1,425.90435791015625,-57.41173553466797) matrix(0.9992245275885765,0.039374401143206325,-0.039374401143206325,0.9992245275885765,2.007493677731496,-1.929946436589141)" style="transform:matrix(0.999225, 0.0393744, -0.0393744, 0.999225, 427.912, -59.3417);animation-play-state:paused" ><path d="M87.422,66.495c-2.009-0.544-4.049-0.97-6.107-1.283c10.617-11.116,15.747-27.37,13.129-42.549 c-5.236,1.77-10.223,4.252-14.824,7.313c-4.13,2.747-7.948,5.961-11.374,9.55C67.425,24.863,61.344,10.451,50.991,0 c-4.015,5.451-7.281,11.444-9.753,17.744c-3.579,9.122-5.501,18.893-5.669,28.691c-4.79-7.979-11.256-14.955-18.858-20.322 c-4.514-3.187-9.431-5.806-14.616-7.72c-3.361,16.717,2.731,35.015,15.445,46.379c0.369,0.33,0.745,0.654,1.126,0.972 c-2.359,0.411-4.689,0.983-6.969,1.714C7.582,68.775,3.634,70.61,0,72.945c8.85,9.963,23.134,14.771,36.208,12.186 c3.524-0.697,7.002-1.919,9.887-4.057c0.073-0.054,0.145-0.111,0.218-0.167c-0.987,5.662-2.714,11.136-5.104,16.221l7.509,2.806 c1.698-5.797,2.631-11.748,2.814-17.669c0.107,0.076,0.215,0.152,0.324,0.225c3.142,2.114,6.863,3.232,10.607,3.796 C76.352,88.379,91.161,82.628,100,71.71C96.061,69.427,91.816,67.684,87.422,66.495z" fill="#ffc46c" transform="scale(0.6593853944133147)" style="transform:matrix(0.659385, 0, 0, 0.659385, 0, 0);animation-play-state:paused" ></path></g>
<g transform="matrix(1,0,0,1,1193.884521484375,700.7568969726562) matrix(-0.22157945350725414,-0.9751423207837031,0.9751423207837031,-0.22157945350725414,12.32185663617755,109.83608871454786)" style="transform:matrix(-0.221579, -0.975142, 0.975142, -0.221579, 1206.21, 810.593);animation-play-state:paused" ><path d="M87.422,66.495c-2.009-0.544-4.049-0.97-6.107-1.283c10.617-11.116,15.747-27.37,13.129-42.549 c-5.236,1.77-10.223,4.252-14.824,7.313c-4.13,2.747-7.948,5.961-11.374,9.55C67.425,24.863,61.344,10.451,50.991,0 c-4.015,5.451-7.281,11.444-9.753,17.744c-3.579,9.122-5.501,18.893-5.669,28.691c-4.79-7.979-11.256-14.955-18.858-20.322 c-4.514-3.187-9.431-5.806-14.616-7.72c-3.361,16.717,2.731,35.015,15.445,46.379c0.369,0.33,0.745,0.654,1.126,0.972 c-2.359,0.411-4.689,0.983-6.969,1.714C7.582,68.775,3.634,70.61,0,72.945c8.85,9.963,23.134,14.771,36.208,12.186 c3.524-0.697,7.002-1.919,9.887-4.057c0.073-0.054,0.145-0.111,0.218-0.167c-0.987,5.662-2.714,11.136-5.104,16.221l7.509,2.806 c1.698-5.797,2.631-11.748,2.814-17.669c0.107,0.076,0.215,0.152,0.324,0.225c3.142,2.114,6.863,3.232,10.607,3.796 C76.352,88.379,91.161,82.628,100,71.71C96.061,69.427,91.816,67.684,87.422,66.495z" fill="#ff9f32" transform="scale(1.1077694401086131)" style="transform:matrix(1.10777, 0, 0, 1.10777, 0, 0);animation-play-state:paused" ></path></g>
<g transform="matrix(1,0,0,1,719.1671142578125,4.2178955078125) matrix(-0.6871623136979048,0.7265039260963029,-0.7265039260963029,-0.6871623136979048,120.68331198971038,48.032919380080095)" style="transform:matrix(-0.687162, 0.726504, -0.726504, -0.687162, 839.85, 52.2508);animation-play-state:paused" ><path d="M87.422,66.495c-2.009-0.544-4.049-0.97-6.107-1.283c10.617-11.116,15.747-27.37,13.129-42.549 c-5.236,1.77-10.223,4.252-14.824,7.313c-4.13,2.747-7.948,5.961-11.374,9.55C67.425,24.863,61.344,10.451,50.991,0 c-4.015,5.451-7.281,11.444-9.753,17.744c-3.579,9.122-5.501,18.893-5.669,28.691c-4.79-7.979-11.256-14.955-18.858-20.322 c-4.514-3.187-9.431-5.806-14.616-7.72c-3.361,16.717,2.731,35.015,15.445,46.379c0.369,0.33,0.745,0.654,1.126,0.972 c-2.359,0.411-4.689,0.983-6.969,1.714C7.582,68.775,3.634,70.61,0,72.945c8.85,9.963,23.134,14.771,36.208,12.186 c3.524-0.697,7.002-1.919,9.887-4.057c0.073-0.054,0.145-0.111,0.218-0.167c-0.987,5.662-2.714,11.136-5.104,16.221l7.509,2.806 c1.698-5.797,2.631-11.748,2.814-17.669c0.107,0.076,0.215,0.152,0.324,0.225c3.142,2.114,6.863,3.232,10.607,3.796 C76.352,88.379,91.161,82.628,100,71.71C96.061,69.427,91.816,67.684,87.422,66.495z" fill="#ff956e" transform="scale(0.6087411605026563)" style="transform:matrix(0.608741, 0, 0, 0.608741, 0, 0);animation-play-state:paused" ></path></g></g></svg>